<svg id="Capa_1" xmlns="http://www.w3.org/2000/svg" viewBox="0 0 287.068 287.068"><path d="M221.606 76.504c2.827 0 5.653-1.076 7.806-3.235l15.618-15.62c4.312-4.31 4.312-11.3 0-15.61-4.312-4.313-11.306-4.313-15.612 0L213.8 57.656c-4.312 4.312-4.312 11.3 0 15.612 2.153 2.157 4.98 3.234 7.806 3.234zm-177.442 67.03c0-6.095-4.946-11.04-11.04-11.04H11.04c-6.094 0-11.04 4.946-11.04 11.04 0 6.095 4.946 11.04 11.04 11.04h22.083c6.095 0 11.04-4.945 11.04-11.04zM57.657 213.8L42.04 229.418c-4.313 4.312-4.313 11.3 0 15.612 2.152 2.16 4.98 3.235 7.805 3.235s5.653-1.077 7.806-3.235l15.62-15.618c4.31-4.312 4.31-11.3 0-15.612-4.307-4.312-11.307-4.312-15.613 0zm0-140.53c2.153 2.158 4.98 3.234 7.806 3.234 2.827 0 5.653-1.076 7.806-3.235 4.31-4.313 4.31-11.302 0-15.613L57.65 42.04c-4.305-4.313-11.305-4.313-15.61 0-4.313 4.31-4.313 11.3 0 15.61l15.617 15.62zm85.877-29.106c6.095 0 11.04-4.946 11.04-11.04V11.04c0-6.094-4.945-11.04-11.04-11.04-6.095 0-11.04 4.946-11.04 11.04v22.083c0 6.095 4.946 11.04 11.04 11.04zm132.493 88.33h-22.082c-6.095 0-11.04 4.945-11.04 11.04 0 6.095 4.945 11.04 11.04 11.04h22.082c6.095 0 11.04-4.945 11.04-11.04 0-6.094-4.945-11.04-11.04-11.04zM229.412 213.8c-4.306-4.312-11.306-4.312-15.612 0-4.312 4.312-4.312 11.3 0 15.612l15.618 15.618c2.153 2.16 4.98 3.235 7.806 3.235 2.827 0 5.648-1.077 7.806-3.235 4.312-4.312 4.312-11.3 0-15.612L229.412 213.8zm-85.878 29.104c-6.095 0-11.04 4.946-11.04 11.04v22.083c0 6.095 4.945 11.04 11.04 11.04 6.095 0 11.04-4.945 11.04-11.04v-22.082c0-6.094-4.945-11.04-11.04-11.04zm0-176.657c-42.62 0-77.288 34.67-77.288 77.288s34.67 77.288 77.288 77.288 77.288-34.67 77.288-77.288-34.67-77.288-77.288-77.288zm0 132.493c-30.44 0-55.205-24.765-55.205-55.205s24.764-55.205 55.204-55.205 55.205 24.765 55.205 55.205-24.765 55.205-55.206 55.205z" id="Dibujo"/></svg>