<svg id="Capa_1" xmlns="http://www.w3.org/2000/svg" viewBox="0 0 369.871 369.871"><g id="Dibujo_16_"><path d="M295.653 219.09c5.217-10.576 7.972-22.197 7.972-34.155 0-42.62-34.67-77.288-77.288-77.288-25.4 0-49.105 12.592-63.464 33.24-.927-.03-1.844-.117-2.777-.117-42.31 0-78.497 27.67-90.046 67.262-3.185-.58-6.525-1.016-9.324-1.016C27.238 207.018 0 234.262 0 267.744s27.238 60.726 60.726 60.726h198.74c33.482 0 60.726-27.244 60.726-60.726 0-19.918-9.683-37.573-24.54-48.653zm-69.316-89.36c30.44 0 55.205 24.765 55.205 55.205 0 8.546-1.987 16.838-5.72 24.384-5.216-1.464-10.687-2.303-16.356-2.303-2.804 0-6.14.436-9.33 1.016-8.877-30.424-32.317-53.743-61.885-62.94 10.147-9.677 23.717-15.363 38.087-15.363zm33.13 176.658H60.726c-21.305 0-38.645-17.34-38.645-38.644S39.422 229.1 60.726 229.1c1.53 0 3.99.375 6.586.894v10.147c0 6.096 4.946 11.042 11.04 11.042s11.042-4.946 11.042-11.04V222.37c5.924-34.52 35.53-59.517 70.702-59.517 35.177 0 64.79 25.008 70.702 59.545v17.743c0 6.096 4.946 11.042 11.04 11.042s11.042-4.946 11.042-11.04V230c2.6-.52 5.073-.9 6.586-.9 21.304 0 38.644 17.34 38.644 38.644s-17.34 38.644-38.644 38.644zM226.337 85.566c6.095 0 11.04-4.946 11.04-11.04V52.44c0-6.095-4.945-11.04-11.04-11.04-6.1 0-11.04 4.945-11.04 11.04v22.082c0 6.095 4.94 11.042 11.04 11.042zM358.83 173.895h-22.082c-6.1 0-11.04 4.946-11.04 11.04 0 6.096 4.94 11.042 11.04 11.042h22.082c6.095 0 11.04-4.946 11.04-11.04 0-6.096-4.945-11.042-11.04-11.042zM304.414 117.9c2.827 0 5.648-1.076 7.806-3.235l15.612-15.612c4.312-4.312 4.312-11.3 0-15.612-4.312-4.31-11.3-4.31-15.612 0l-15.612 15.613c-4.312 4.312-4.312 11.3 0 15.612 2.153 2.158 4.98 3.235 7.806 3.235zM140.454 114.665c2.16 2.16 4.98 3.235 7.806 3.235 2.827 0 5.648-1.076 7.806-3.235 4.312-4.312 4.312-11.3 0-15.612L140.454 83.44c-4.312-4.312-11.3-4.312-15.612 0-4.312 4.312-4.312 11.3 0 15.612l15.612 15.613z"/></g></svg>