<svg id="Capa_1" xmlns="http://www.w3.org/2000/svg" viewBox="0 0 320.192 320.192"><path d="M277.352 168.31c16.192-14.364 26.278-35.298 26.278-57.9 0-6.094-4.946-11.04-11.04-11.04-30.44 0-55.206-24.765-55.206-55.205 0-6.095-4.946-11.04-11.04-11.04-39.075 0-71.387 29.17-76.5 66.858-37.804 4.07-69.188 30.297-79.793 66.644-3.184-.574-6.524-1.01-9.323-1.01C27.244 165.617 0 192.86 0 226.342s27.244 60.726 60.726 60.726h198.74c33.482 0 60.726-27.244 60.726-60.726 0-27.26-18.063-50.375-42.84-58.032zM216.23 56.133c5.155 33.04 31.328 59.224 64.37 64.392-3.396 17.92-15.68 33.156-32.362 40.444-11.89-32.837-41.112-56.344-76.14-60.77 4.19-22.3 21.817-39.916 44.13-44.067zm43.236 208.853H60.726c-21.304 0-38.644-17.34-38.644-38.644s17.34-38.644 38.644-38.644c1.53 0 3.997.375 6.592.894v10.147c0 6.094 4.946 11.04 11.04 11.04 6.096 0 11.042-4.946 11.042-11.04v-17.8c5.935-34.508 35.536-59.488 70.696-59.488 35.177 0 64.79 25.008 70.707 59.55v17.738c0 6.095 4.946 11.04 11.04 11.04 6.096 0 11.042-4.945 11.042-11.04V188.6c2.595-.52 5.068-.9 6.58-.9 21.305 0 38.645 17.34 38.645 38.643s-17.34 38.643-38.644 38.643z" id="Dibujo_17_"/></svg>