<svg id="Capa_1" xmlns="http://www.w3.org/2000/svg" viewBox="0 0 320.192 320.192"><path d="M259.466 132.493c-2.8 0-6.14.436-9.32 1.016-11.56-39.594-47.746-67.263-90.05-67.263-42.31 0-78.49 27.67-90.05 67.262-3.18-.58-6.52-1.017-9.32-1.017C27.244 132.493 0 159.737 0 193.22s27.244 60.725 60.726 60.725h198.74c33.482 0 60.726-27.244 60.726-60.726s-27.244-60.727-60.726-60.727zm0 99.37H60.726c-21.31 0-38.644-17.34-38.644-38.644s17.335-38.645 38.644-38.645c1.53 0 3.99.375 6.592.894v10.146c0 6.095 4.946 11.04 11.04 11.04 6.096 0 11.042-4.945 11.042-11.04v-17.81c5.94-34.502 35.54-59.477 70.696-59.477 35.17 0 64.784 25.002 70.707 59.533v17.754c0 6.095 4.946 11.04 11.04 11.04 6.1 0 11.042-4.945 11.042-11.04v-10.14c2.595-.52 5.068-.9 6.58-.9 21.305 0 38.645 17.34 38.645 38.643s-17.34 38.643-38.644 38.643z" id="Dibujo_15_"/></svg>