<svg id="Capa_1" xmlns="http://www.w3.org/2000/svg" viewBox="0 0 353.315 353.315"><g id="Dibujo_40_"><path d="M60.726 171.137h165.616c6.095 0 11.04-4.946 11.04-11.04 0-6.096-4.945-11.042-11.04-11.042H60.726c-6.095 0-11.04 4.946-11.04 11.04 0 6.096 4.945 11.042 11.04 11.042zM27.597 204.26h132.5c6.094 0 11.04-4.946 11.04-11.04s-4.946-11.042-11.04-11.042h-132.5c-6.095 0-11.04 4.946-11.04 11.04s4.946 11.042 11.04 11.042zM353.315 226.342c0-6.095-4.946-11.04-11.04-11.04H11.04C4.947 215.3 0 220.247 0 226.34s4.946 11.04 11.04 11.04h331.234c6.1.002 11.04-4.945 11.04-11.04zM342.274 248.425H27.604c-6.096 0-11.042 4.946-11.042 11.04 0 6.096 4.946 11.042 11.04 11.042h314.672c6.095 0 11.04-4.946 11.04-11.04 0-6.096-4.94-11.042-11.04-11.042zM126.973 281.548l-66.247-.006c-6.095 0-11.04 4.946-11.04 11.04s4.945 11.042 11.04 11.042l66.247.005c6.095 0 11.04-4.947 11.04-11.042s-4.94-11.04-11.04-11.04zM309.15 281.542l-149.054.006c-6.095 0-11.04 4.946-11.04 11.04s4.945 11.042 11.04 11.042l149.055-.005c6.096 0 11.042-4.946 11.042-11.04s-4.94-11.043-11.04-11.043z"/><path d="M126.973 138.014h66.247c6.095 0 11.04-4.946 11.04-11.04 0-26.985 19.455-49.51 45.082-54.274 2.484 16.11 9.98 30.96 21.712 42.69 11.73 11.73 26.58 19.223 42.685 21.712-4.77 25.615-27.29 45.07-54.274 45.07l-66.247.006c-6.096 0-11.042 4.946-11.042 11.04s4.946 11.042 11.04 11.042l66.248-.01c42.613 0 77.282-34.67 77.282-77.283 0-2.926-1.165-5.736-3.235-7.806-2.07-2.07-4.88-3.234-7.806-3.234h-.01c-14.752 0-28.62-5.736-39.03-16.153-10.418-10.423-16.16-24.285-16.16-39.047 0-6.095-4.946-11.04-11.04-11.04-38.87 0-71.128 28.844-76.5 66.246h-55.994c-6.095 0-11.04 4.946-11.04 11.04s4.945 11.042 11.04 11.042z"/></g></svg>