<svg id="Capa_1" xmlns="http://www.w3.org/2000/svg" viewBox="0 0 403 403"><g id="Dibujo_39_"><path d="M259.466 102.13c6.095 0 11.04-4.946 11.04-11.04V69.006c0-6.095-4.945-11.04-11.04-11.04-6.1 0-11.04 4.945-11.04 11.04V91.09c0 6.094 4.94 11.04 11.04 11.04zM391.96 190.46h-22.083c-6.1 0-11.04 4.945-11.04 11.04s4.94 11.04 11.04 11.04h22.082c6.094 0 11.04-4.945 11.04-11.04s-4.946-11.04-11.04-11.04zM337.543 134.464c2.827 0 5.648-1.077 7.806-3.235l15.61-15.613c4.313-4.312 4.313-11.3 0-15.612-4.31-4.312-11.3-4.312-15.61 0l-15.613 15.612c-4.312 4.312-4.312 11.3 0 15.612 2.153 2.157 4.98 3.234 7.806 3.234zM173.583 131.23c2.16 2.158 4.98 3.234 7.806 3.234s5.652-1.077 7.805-3.235c4.312-4.313 4.312-11.302 0-15.613l-15.612-15.612c-4.312-4.312-11.3-4.312-15.612 0-4.31 4.312-4.31 11.3 0 15.612l15.613 15.612zM60.726 212.54h165.616c6.095 0 11.04-4.945 11.04-11.04s-4.945-11.04-11.04-11.04H60.726c-6.1 0-11.04 4.945-11.04 11.04s4.94 11.04 11.04 11.04zM27.597 245.664h132.5c6.094 0 11.04-4.946 11.04-11.04 0-6.096-4.946-11.042-11.04-11.042h-132.5c-6.1 0-11.04 4.946-11.04 11.04 0 6.096 4.94 11.042 11.04 11.042zM342.274 256.705H11.04c-6.1 0-11.04 4.946-11.04 11.04 0 6.096 4.94 11.042 11.04 11.042h331.234c6.095 0 11.04-4.946 11.04-11.04 0-6.095-4.945-11.042-11.04-11.042zM342.274 289.83H27.604c-6.1 0-11.042 4.945-11.042 11.04 0 6.095 4.94 11.04 11.04 11.04h314.672c6.095 0 11.04-4.945 11.04-11.04 0-6.095-4.945-11.04-11.04-11.04zM126.973 322.952l-66.247-.006c-6.1 0-11.04 4.946-11.04 11.04s4.94 11.042 11.04 11.042l66.247.006c6.095 0 11.04-4.946 11.04-11.04s-4.946-11.042-11.04-11.042zM309.15 322.947l-149.054.006c-6.1 0-11.04 4.946-11.04 11.04s4.94 11.042 11.04 11.042l149.055-.006c6.096 0 11.042-4.947 11.042-11.042s-4.947-11.04-11.04-11.04z"/><path d="M126.973 179.418h75.096c3.94 0 7.58-2.098 9.555-5.504 9.865-17.036 28.2-27.62 47.84-27.62 30.44 0 55.206 24.766 55.206 55.206 0 7.69-1.6 15.275-4.565 22.082H193.22c-6.1 0-11.042 4.946-11.042 11.04 0 6.096 4.94 11.042 11.04 11.042h123.628c3.76 0 7.254-1.91 9.29-5.073.1-.148.294-.457.382-.617 6.69-11.66 10.235-24.958 10.235-38.473 0-42.62-34.67-77.288-77.288-77.288-25.306 0-49.06 12.543-63.437 33.123H126.97c-6.1 0-11.04 4.946-11.04 11.04.002 6.096 4.942 11.043 11.043 11.043z"/></g></svg>