<svg id="Capa_1" xmlns="http://www.w3.org/2000/svg" viewBox="0 0 386.438 386.438"><g id="Dibujo_20_"><path d="M310.476 135.187c16.192-14.364 26.278-35.298 26.278-57.9 0-6.095-4.946-11.04-11.04-11.04-30.44 0-55.207-24.766-55.207-55.206 0-6.094-4.947-11.04-11.04-11.04-39.075 0-71.382 29.17-76.5 66.86-37.804 4.073-69.188 30.3-79.8 66.65-3.18-.58-6.52-1.017-9.318-1.017-33.483 0-60.727 27.244-60.727 60.726s27.244 60.725 60.726 60.725h38.643v22.082c0 6.095 4.946 11.04 11.04 11.04 6.096 0 11.042-4.945 11.042-11.04v-22.082h77.288v22.082c0 6.095 4.946 11.04 11.04 11.04 6.096 0 11.042-4.945 11.042-11.04v-22.082h38.644c33.48 0 60.725-27.244 60.725-60.726 0-27.26-18.058-50.376-42.84-58.033zM249.346 23.01c5.163 33.04 31.336 59.224 64.376 64.392-3.395 17.92-15.678 33.156-32.36 40.444-11.898-32.836-41.118-56.343-76.14-60.77 4.19-22.3 21.81-39.915 44.125-44.066zm43.243 208.853H93.85c-21.31 0-38.645-17.34-38.645-38.644s17.335-38.645 38.644-38.645c1.528 0 3.99.375 6.585.894v10.146c0 6.095 4.946 11.04 11.04 11.04 6.096 0 11.042-4.945 11.042-11.04v-17.782c5.935-34.514 35.536-59.506 70.702-59.506 35.16 0 64.766 24.992 70.7 59.506v17.782c0 6.095 4.947 11.04 11.042 11.04s11.04-4.945 11.04-11.04v-10.14c2.596-.52 5.074-.9 6.587-.9 21.303 0 38.643 17.34 38.643 38.643s-17.34 38.643-38.644 38.643z"/><path d="M193.22 276.027c-6.096 0-11.042 4.946-11.042 11.04v22.083c0 6.095 4.946 11.04 11.04 11.04s11.042-4.945 11.042-11.04v-22.082c0-6.094-4.946-11.04-11.04-11.04zM193.22 342.274c-6.096 0-11.042 4.946-11.042 11.04v22.083c0 6.095 4.946 11.04 11.04 11.04s11.042-4.945 11.042-11.04v-22.082c0-6.095-4.946-11.04-11.04-11.04zM143.534 309.15c-6.095 0-11.04 4.947-11.04 11.042v22.082c0 6.095 4.945 11.04 11.04 11.04 6.095 0 11.04-4.945 11.04-11.04v-22.082c0-6.095-4.945-11.04-11.04-11.04zM242.904 309.15c-6.095 0-11.04 4.947-11.04 11.042v22.082c0 6.095 4.945 11.04 11.04 11.04 6.095 0 11.04-4.945 11.04-11.04v-22.082c0-6.095-4.945-11.04-11.04-11.04z"/></g></svg>