<svg id="Capa_1" xmlns="http://www.w3.org/2000/svg" viewBox="0 0 419.562 419.562"><path d="M184.936 375.397c-6.1 0-11.04 4.946-11.04 11.04v22.083c0 6.095 4.94 11.04 11.04 11.04 6.095 0 11.04-4.945 11.04-11.04v-22.082c0-6.094-4.946-11.04-11.04-11.04zM165.3 73.263c2.158 2.16 4.98 3.235 7.805 3.235s5.653-1.077 7.806-3.235c4.313-4.312 4.313-11.3 0-15.612L165.3 42.04c-4.313-4.313-11.302-4.313-15.613 0s-4.312 11.3 0 15.61L165.3 73.264zm85.882-29.1c6.095 0 11.04-4.945 11.04-11.04V11.04c0-6.094-4.945-11.04-11.04-11.04-6.1 0-11.04 4.946-11.04 11.04v22.083c0 6.095 4.94 11.04 11.04 11.04zM329.26 76.5c2.826 0 5.647-1.077 7.805-3.235l15.612-15.612c4.312-4.31 4.312-11.3 0-15.61-4.312-4.313-11.3-4.313-15.612 0l-15.612 15.61c-4.312 4.313-4.312 11.302 0 15.613 2.153 2.16 4.98 3.235 7.806 3.235zM135.25 342.274c-6.1 0-11.04 4.946-11.04 11.04v22.083c0 6.095 4.94 11.04 11.04 11.04 6.096 0 11.042-4.945 11.042-11.04v-22.082c0-6.095-4.947-11.04-11.04-11.04zm248.425-209.78h-22.082c-6.1 0-11.04 4.945-11.04 11.04 0 6.095 4.94 11.04 11.04 11.04h22.082c6.095 0 11.04-4.945 11.04-11.04 0-6.094-4.945-11.04-11.04-11.04zM184.935 309.15c-6.1 0-11.04 4.947-11.04 11.042v22.082c0 6.095 4.94 11.04 11.04 11.04 6.096 0 11.042-4.945 11.042-11.04v-22.082c0-6.095-4.947-11.04-11.04-11.04zM320.5 177.69c5.217-10.577 7.972-22.198 7.972-34.156 0-42.62-34.67-77.288-77.288-77.288-25.4 0-49.105 12.592-63.464 33.24-.927-.03-1.844-.117-2.777-.117-42.308 0-78.496 27.668-90.05 67.26-3.18-.58-6.52-1.015-9.32-1.015-33.487 0-60.725 27.244-60.725 60.726s27.238 60.727 60.726 60.727h38.64v22.082c0 6.094 4.94 11.04 11.04 11.04 6.095 0 11.04-4.946 11.04-11.04v-22.083h77.29v22.082c0 6.094 4.94 11.04 11.04 11.04 6.095 0 11.04-4.946 11.04-11.04v-22.083h38.65c33.482 0 60.726-27.244 60.726-60.726 0-19.916-9.682-37.57-24.538-48.65zm-69.316-89.36c30.44 0 55.205 24.764 55.205 55.204 0 8.546-1.987 16.838-5.72 24.384-5.216-1.463-10.687-2.302-16.356-2.302-2.803 0-6.138.436-9.33 1.016-8.876-30.424-32.316-53.743-61.884-62.94 10.147-9.677 23.716-15.363 38.086-15.363zm33.13 176.656H85.57c-21.305 0-38.645-17.34-38.645-38.644s17.34-38.644 38.644-38.644c1.53 0 3.992.375 6.58.894v10.147c0 6.094 4.947 11.04 11.042 11.04s11.04-4.946 11.04-11.04v-17.744c5.913-34.537 35.526-59.545 70.708-59.545 35.166 0 64.773 24.998 70.696 59.518v17.77c0 6.096 4.946 11.042 11.04 11.042s11.042-4.946 11.042-11.04v-10.142c2.6-.52 5.08-.9 6.592-.9 21.304 0 38.644 17.34 38.644 38.644s-17.34 38.644-38.643 38.644zm-49.69 77.288c-6.1 0-11.042 4.946-11.042 11.04v22.083c0 6.095 4.94 11.04 11.04 11.04 6.096 0 11.042-4.945 11.042-11.04v-22.082c0-6.095-4.947-11.04-11.04-11.04z" id="Dibujo_19_"/></svg>