<svg id="Capa_1" xmlns="http://www.w3.org/2000/svg" viewBox="0 0 320.192 320.192"><g id="Dibujo_35_"><path d="M259.466 82.808c-2.8 0-6.14.436-9.32 1.016-11.565-39.593-47.746-67.262-90.05-67.262s-78.49 27.67-90.046 67.262c-3.185-.58-6.525-1.016-9.324-1.016C27.244 82.808 0 110.052 0 143.534s27.244 60.726 60.726 60.726c6.095 0 11.04-4.946 11.04-11.04s-4.945-11.042-11.04-11.042c-21.31 0-38.644-17.34-38.644-38.644s17.335-38.644 38.644-38.644c1.53 0 3.99.375 6.586.894v10.147c0 6.096 4.946 11.042 11.04 11.042s11.042-4.946 11.042-11.04V98.15c5.93-34.514 35.536-59.506 70.702-59.506s64.767 24.992 70.702 59.506v17.782c0 6.095 4.946 11.04 11.04 11.04s11.042-4.945 11.042-11.04v-10.147c2.595-.52 5.05-.894 6.586-.894 21.304 0 38.644 17.34 38.644 38.645s-17.34 38.644-38.644 38.644c-6.095 0-11.04 4.945-11.04 11.04s4.945 11.04 11.04 11.04c33.482 0 60.726-27.243 60.726-60.725s-27.244-60.727-60.726-60.727z"/><path d="M168.294 149.386c-5.924-1.49-11.913 2.12-13.393 8.032L121.78 289.91c-1.48 5.92 2.12 11.91 8.032 13.394.9.22 1.8.326 2.688.326 4.946 0 9.446-3.345 10.704-8.364l33.123-132.493c1.48-5.918-2.113-11.907-8.03-13.387zM212.453 182.51c-5.918-1.497-11.908 2.12-13.387 8.03l-16.562 66.248c-1.48 5.918 2.12 11.913 8.038 13.393.9.227 1.8.332 2.683.332 4.946 0 9.45-3.345 10.704-8.364l16.555-66.247c1.485-5.92-2.114-11.917-8.032-13.39zM107.562 182.51c-5.9-1.497-11.908 2.12-13.387 8.03L77.613 256.79c-1.48 5.918 2.12 11.913 8.038 13.393.9.227 1.8.332 2.684.332 4.946 0 9.45-3.345 10.704-8.364L115.6 195.9c1.48-5.92-2.12-11.917-8.038-13.39z"/></g></svg>