<svg id="Capa_1" xmlns="http://www.w3.org/2000/svg" viewBox="0 0 369.871 369.871"><g id="Dibujo_31_"><path d="M295.653 180.453c5.217-10.572 7.972-22.198 7.972-34.16 0-42.62-34.67-77.29-77.288-77.29-25.4 0-49.105 12.593-63.464 33.24-.927-.028-1.844-.116-2.777-.116-42.31 0-78.497 27.67-90.05 67.262-3.18-.58-6.52-1.017-9.32-1.017C27.244 168.373 0 195.618 0 229.1s27.244 60.726 60.726 60.726c6.095 0 11.04-4.946 11.04-11.04s-4.945-11.042-11.04-11.042c-21.304 0-38.644-17.34-38.644-38.644s17.34-38.644 38.644-38.644c1.53 0 3.99.375 6.586.894v10.147c0 6.095 4.946 11.04 11.04 11.04s11.042-4.945 11.042-11.04v-17.77c5.924-34.52 35.53-59.518 70.702-59.518 35.166 0 64.773 24.996 70.702 59.522v17.765c0 6.095 4.94 11.04 11.04 11.04s11.042-4.945 11.042-11.04V191.35c2.595-.52 5.057-.894 6.586-.894 21.304 0 38.644 17.34 38.644 38.644s-17.34 38.644-38.644 38.644c-6.095 0-11.04 4.946-11.04 11.04s4.945 11.042 11.04 11.042c33.482 0 60.726-27.244 60.726-60.726 0-19.913-9.683-37.573-24.54-48.647zm-45.51-11.063c-8.878-30.424-32.324-53.743-61.892-62.94 10.148-9.677 23.717-15.364 38.087-15.364 30.44 0 55.205 24.765 55.205 55.205 0 8.552-1.987 16.844-5.714 24.385-5.217-1.463-10.688-2.302-16.363-2.302-2.804 0-6.138.437-9.323 1.017zM226.337 46.922c6.095 0 11.04-4.946 11.04-11.04V13.798c0-6.096-4.945-11.042-11.04-11.042-6.1 0-11.04 4.946-11.04 11.04v22.083c0 6.095 4.94 11.042 11.04 11.042zM358.83 135.25h-22.082c-6.1 0-11.04 4.947-11.04 11.042s4.94 11.04 11.04 11.04h22.082c6.095 0 11.04-4.945 11.04-11.04s-4.945-11.04-11.04-11.04zM304.414 79.256c2.827 0 5.648-1.077 7.806-3.235l15.612-15.61c4.312-4.313 4.312-11.302 0-15.613-4.312-4.312-11.3-4.312-15.612 0L296.608 60.41c-4.312 4.31-4.312 11.3 0 15.61 2.153 2.16 4.98 3.236 7.806 3.236zM140.46 76.02c2.158 2.16 4.98 3.236 7.805 3.236s5.648-1.077 7.806-3.235c4.313-4.31 4.313-11.3 0-15.61l-15.61-15.613c-4.313-4.312-11.302-4.312-15.613 0-4.312 4.312-4.312 11.3 0 15.612l15.612 15.61z"/><path d="M147.575 292.388c-3.058-5.278-9.788-7.1-15.082-4.047-5.278 3.054-7.088 9.8-4.04 15.083l5.52 9.562c2.048 3.544 5.758 5.52 9.573 5.52 1.87 0 3.77-.474 5.51-1.478 5.278-3.053 7.088-9.8 4.04-15.082l-5.52-9.557zM119.973 244.58c-3.058-5.283-9.793-7.094-15.082-4.04-5.277 3.052-7.087 9.798-4.04 15.08l5.52 9.563c2.05 3.544 5.76 5.52 9.574 5.52 1.87 0 3.77-.474 5.51-1.473 5.278-3.053 7.088-9.8 4.04-15.088l-5.52-9.562z"/><path d="M132.493 269.23c1.74 1.004 3.638 1.473 5.51 1.473 3.815 0 7.524-1.976 9.573-5.52l5.52-9.563c3.048-5.283 1.238-12.035-4.04-15.082-5.3-3.053-12.035-1.242-15.082 4.04l-5.52 9.563c-3.05 5.284-1.24 12.036 4.04 15.09zM121.452 288.34c-5.3-3.057-12.035-1.236-15.082 4.048l-5.52 9.562c-3.048 5.283-1.238 12.035 4.04 15.082 1.74 1.005 3.638 1.48 5.51 1.48 3.815 0 7.524-1.977 9.573-5.522l5.52-9.562c3.047-5.283 1.237-12.034-4.04-15.087z"/><path d="M115.932 278.785c0-6.095-4.946-11.04-11.04-11.04H93.848c-6.1 0-11.042 4.945-11.042 11.04s4.94 11.04 11.04 11.04h11.042c6.095 0 11.042-4.945 11.042-11.04zM171.137 278.785c0-6.095-4.946-11.04-11.04-11.04h-11.042c-6.1 0-11.04 4.945-11.04 11.04s4.94 11.04 11.04 11.04h11.04c6.096 0 11.042-4.945 11.042-11.04zM230.383 340.99c-3.058-5.278-9.788-7.094-15.082-4.04-5.277 3.052-7.087 9.798-4.04 15.08l5.52 9.563c2.05 3.544 5.76 5.52 9.574 5.52 1.87 0 3.77-.474 5.51-1.478 5.278-3.053 7.088-9.8 4.04-15.082l-5.52-9.563zM202.78 293.177c-3.057-5.278-9.787-7.1-15.08-4.04-5.28 3.052-7.09 9.798-4.042 15.08l5.52 9.563c2.05 3.544 5.76 5.52 9.574 5.52 1.87 0 3.77-.474 5.51-1.473 5.278-3.053 7.088-9.8 4.04-15.088l-5.52-9.563z"/><path d="M215.3 317.826c1.74 1.005 3.64 1.474 5.51 1.474 3.816 0 7.526-1.976 9.574-5.52l5.52-9.563c3.048-5.283 1.238-12.035-4.04-15.082-5.3-3.058-12.04-1.237-15.082 4.04l-5.52 9.563c-3.05 5.29-1.238 12.04 4.04 15.088zM204.26 336.944c-5.3-3.053-12.04-1.237-15.082 4.04l-5.52 9.563c-3.048 5.283-1.238 12.035 4.04 15.082 1.74 1.01 3.638 1.484 5.51 1.484 3.815 0 7.525-1.976 9.573-5.52l5.522-9.563c3.047-5.282 1.236-12.033-4.042-15.086z"/><path d="M198.74 327.388c0-6.095-4.946-11.04-11.04-11.04h-11.042c-6.1 0-11.04 4.945-11.04 11.04s4.94 11.04 11.04 11.04h11.04c6.095 0 11.042-4.946 11.042-11.04zM242.904 316.347h-11.04c-6.1 0-11.042 4.946-11.042 11.04s4.94 11.042 11.04 11.042h11.042c6.095 0 11.04-4.947 11.04-11.042s-4.945-11.04-11.04-11.04z"/></g></svg>