<svg id="Capa_1" xmlns="http://www.w3.org/2000/svg" viewBox="0 0 331.233 331.233"><g id="Dibujo_32_"><path d="M282.873 135.187c16.192-14.364 26.278-35.298 26.278-57.9 0-6.095-4.945-11.04-11.04-11.04-30.44 0-55.205-24.766-55.205-55.206 0-6.094-4.947-11.04-11.042-11.04-39.074 0-71.386 29.17-76.498 66.86-37.805 4.068-69.19 30.296-79.794 66.643-3.184-.574-6.524-1.01-9.323-1.01-33.482 0-60.726 27.244-60.726 60.726s27.245 60.725 60.727 60.725c6.095 0 11.04-4.946 11.04-11.04 0-6.096-4.945-11.042-11.04-11.042-21.304 0-38.644-17.34-38.644-38.644s17.34-38.645 38.644-38.645c1.53 0 3.99.375 6.586.894v10.146c0 6.095 4.94 11.04 11.04 11.04s11.042-4.945 11.042-11.04v-17.77c5.924-34.52 35.53-59.518 70.702-59.518 35.166 0 64.773 24.997 70.702 59.523v17.766c0 6.095 4.945 11.04 11.04 11.04 6.095 0 11.04-4.945 11.04-11.04V155.47c2.596-.52 5.058-.894 6.587-.894 21.304 0 38.644 17.34 38.644 38.644s-17.34 38.644-38.643 38.644c-6.1 0-11.04 4.946-11.04 11.04 0 6.096 4.94 11.042 11.04 11.042 33.482 0 60.726-27.244 60.726-60.726 0-27.26-18.064-50.376-42.84-58.033zM177.618 67.075c4.19-22.297 21.817-39.914 44.13-44.065 5.157 33.04 31.33 59.224 64.37 64.392-3.394 17.92-15.677 33.156-32.36 40.444-11.897-32.837-41.112-56.344-76.14-60.77z"/><path d="M153.096 256.507c-3.058-5.278-9.788-7.1-15.082-4.047-5.278 3.053-7.088 9.8-4.04 15.082l5.52 9.562c2.048 3.544 5.758 5.52 9.573 5.52 1.87 0 3.77-.474 5.51-1.478 5.278-3.053 7.088-9.8 4.04-15.082l-5.52-9.557zM125.493 208.7c-3.058-5.284-9.788-7.095-15.082-4.042-5.277 3.053-7.087 9.8-4.04 15.082l5.52 9.562c2.05 3.544 5.76 5.52 9.574 5.52 1.87 0 3.77-.474 5.51-1.473 5.278-3.054 7.088-9.8 4.04-15.09l-5.52-9.56z"/><path d="M138.014 233.348c1.74 1.005 3.638 1.474 5.51 1.474 3.815 0 7.525-1.976 9.573-5.52l5.52-9.563c3.048-5.284 1.238-12.036-4.04-15.083-5.294-3.053-12.035-1.242-15.082 4.04l-5.52 9.563c-3.05 5.284-1.24 12.035 4.04 15.088zM126.973 252.46c-5.294-3.058-12.035-1.237-15.082 4.047l-5.52 9.562c-3.047 5.282-1.237 12.034 4.04 15.08 1.74 1.006 3.64 1.48 5.51 1.48 3.816 0 7.525-1.976 9.574-5.52l5.52-9.563c3.047-5.282 1.236-12.034-4.04-15.087z"/><path d="M121.452 242.904c0-6.095-4.946-11.04-11.04-11.04H99.37c-6.1 0-11.04 4.945-11.04 11.04 0 6.095 4.94 11.04 11.04 11.04h11.04c6.096 0 11.042-4.945 11.042-11.04zM176.658 242.904c0-6.095-4.946-11.04-11.04-11.04h-11.042c-6.1 0-11.04 4.945-11.04 11.04 0 6.095 4.94 11.04 11.04 11.04h11.04c6.095 0 11.042-4.945 11.042-11.04zM235.904 305.11c-3.058-5.278-9.793-7.094-15.082-4.04-5.278 3.052-7.088 9.798-4.04 15.08l5.52 9.563c2.048 3.544 5.758 5.52 9.573 5.52 1.87 0 3.77-.474 5.51-1.478 5.278-3.053 7.088-9.8 4.04-15.082l-5.52-9.563zM208.3 257.296c-3.057-5.278-9.792-7.1-15.08-4.04-5.28 3.052-7.09 9.798-4.042 15.08l5.52 9.563c2.05 3.543 5.76 5.52 9.574 5.52 1.87 0 3.77-.475 5.51-1.474 5.278-3.053 7.088-9.8 4.04-15.088l-5.52-9.562z"/><path d="M220.822 281.945c1.74 1.005 3.638 1.474 5.51 1.474 3.815 0 7.524-1.977 9.573-5.522l5.52-9.562c3.048-5.283 1.238-12.035-4.04-15.082-5.294-3.058-12.035-1.237-15.082 4.04l-5.52 9.563c-3.05 5.29-1.24 12.04 4.04 15.088zM209.78 301.063c-5.293-3.053-12.034-1.237-15.08 4.04l-5.522 9.563c-3.047 5.283-1.237 12.035 4.04 15.082 1.74 1.01 3.64 1.485 5.51 1.485 3.816 0 7.526-1.976 9.574-5.52l5.52-9.563c3.047-5.282 1.236-12.034-4.04-15.087z"/><path d="M204.26 291.507c0-6.095-4.946-11.04-11.04-11.04h-11.042c-6.1 0-11.04 4.945-11.04 11.04s4.94 11.04 11.04 11.04h11.04c6.096 0 11.042-4.945 11.042-11.04zM248.425 280.466h-11.04c-6.1 0-11.042 4.946-11.042 11.04s4.94 11.042 11.04 11.042h11.042c6.095 0 11.04-4.946 11.04-11.04s-4.946-11.042-11.04-11.042z"/></g></svg>