<svg id="Capa_1" xmlns="http://www.w3.org/2000/svg" viewBox="0 0 353.315 353.315"><path d="M293.914 135.187c16.192-14.364 26.278-35.298 26.278-57.9 0-6.095-4.946-11.04-11.04-11.04-30.44 0-55.206-24.766-55.206-55.206C253.946 4.947 249 0 242.904 0c-39.074 0-71.386 29.17-76.498 66.86-37.805 4.068-69.19 30.296-79.794 66.643-3.185-.574-6.525-1.01-9.324-1.01-33.482 0-60.726 27.244-60.726 60.726s27.244 60.725 60.726 60.725h62.178l-21.68 32.522c-2.257 3.384-2.467 7.74-.55 11.334 1.926 3.59 5.67 5.83 9.737 5.83h12.493l-21.68 32.523c-3.378 5.073-2.008 11.93 3.065 15.31 1.878 1.258 4.01 1.854 6.112 1.854 3.566 0 7.066-1.728 9.197-4.92l33.122-49.684c2.258-3.384 2.468-7.74.552-11.334-1.927-3.59-5.67-5.83-9.738-5.83h-12.493l18.4-27.604h28.663l-10.638 15.96c-2.258 3.384-2.468 7.74-.552 11.334 1.932 3.588 5.675 5.83 9.744 5.83h12.493l-10.638 15.96c-3.38 5.073-2.01 11.93 3.064 15.31 1.876 1.258 4.007 1.854 6.11 1.854 3.566 0 7.066-1.728 9.197-4.92l22.082-33.122c2.257-3.384 2.467-7.74.55-11.334-1.926-3.588-5.67-5.83-9.737-5.83H213.85l7.36-11.04h54.818c33.482 0 60.726-27.245 60.726-60.727 0-27.26-18.064-50.376-42.84-58.033zM232.79 23.01c5.156 33.04 31.33 59.224 64.37 64.392-3.395 17.92-15.678 33.156-32.36 40.444-11.892-32.836-41.113-56.343-76.14-60.77 4.19-22.3 21.816-39.915 44.13-44.066zm43.237 208.853H77.287c-21.303 0-38.643-17.34-38.643-38.644s17.34-38.645 38.644-38.645c1.53 0 3.99.375 6.586.894v10.146c0 6.095 4.946 11.04 11.04 11.04 6.096 0 11.042-4.945 11.042-11.04v-17.77c5.924-34.52 35.53-59.518 70.702-59.518 35.166 0 64.773 24.997 70.702 59.523v17.766c0 6.095 4.946 11.04 11.04 11.04 6.096 0 11.042-4.945 11.042-11.04v-10.14c2.595-.52 5.073-.9 6.586-.9 21.304 0 38.644 17.34 38.644 38.643s-17.34 38.643-38.645 38.643z" id="Dibujo_29_"/></svg>