<svg id="Capa_1" xmlns="http://www.w3.org/2000/svg" viewBox="0 0 386.438 386.438"><path d="M234.62 44.164c6.096 0 11.042-4.946 11.042-11.04V11.04c0-6.094-4.947-11.04-11.04-11.04-6.1 0-11.042 4.946-11.042 11.04v22.083c0 6.095 4.94 11.04 11.04 11.04zm69.317 133.53c5.217-10.57 7.972-22.197 7.972-34.16 0-42.62-34.67-77.288-77.29-77.288-25.4 0-49.104 12.592-63.463 33.24-.927-.03-1.844-.117-2.777-.117-42.31 0-78.497 27.668-90.05 67.26-3.18-.58-6.52-1.015-9.32-1.015-33.482 0-60.726 27.244-60.726 60.726s27.244 60.727 60.726 60.727h62.178l-21.68 32.522c-2.257 3.383-2.467 7.74-.55 11.333 1.926 3.588 5.67 5.83 9.737 5.83h12.493l-21.68 32.522c-3.378 5.073-2.008 11.93 3.065 15.31 1.877 1.258 4.008 1.854 6.11 1.854 3.567 0 7.067-1.73 9.198-4.92l33.124-49.685c2.258-3.384 2.468-7.74.552-11.334-1.927-3.587-5.67-5.83-9.738-5.83h-12.493l18.4-27.602h28.663l-10.638 15.96c-2.258 3.384-2.468 7.74-.552 11.334 1.932 3.588 5.675 5.83 9.744 5.83h12.493l-10.638 15.96c-3.38 5.073-2.01 11.93 3.064 15.31 1.878 1.258 4.01 1.854 6.112 1.854 3.566 0 7.066-1.728 9.197-4.92l22.08-33.122c2.26-3.384 2.47-7.74.553-11.334-1.927-3.588-5.67-5.83-9.738-5.83h-12.493l7.36-11.04h54.818c33.482 0 60.726-27.245 60.726-60.727 0-19.913-9.684-37.573-24.54-48.648zM234.62 88.33c30.44 0 55.206 24.764 55.206 55.204 0 8.55-1.987 16.843-5.714 24.384-5.217-1.463-10.688-2.302-16.363-2.302-2.805 0-6.14.436-9.325 1.016-8.877-30.424-32.323-53.743-61.89-62.94C206.68 94.015 220.25 88.33 234.62 88.33zm33.13 176.656H69.01c-21.304 0-38.644-17.34-38.644-38.644s17.34-38.644 38.644-38.644c1.53 0 3.99.375 6.586.894v10.147c0 6.094 4.94 11.04 11.04 11.04 6.1 0 11.042-4.946 11.042-11.04v-17.772c5.924-34.52 35.53-59.517 70.702-59.517 35.166 0 64.773 24.998 70.702 59.524v17.765c0 6.094 4.946 11.04 11.04 11.04 6.096 0 11.042-4.946 11.042-11.04v-10.142c2.595-.52 5.073-.9 6.586-.9 21.304 0 38.644 17.34 38.644 38.644s-17.34 38.644-38.645 38.644zm44.948-188.488c2.827 0 5.648-1.077 7.806-3.235l15.612-15.612c4.312-4.31 4.312-11.3 0-15.61-4.312-4.313-11.3-4.313-15.612 0l-15.612 15.61c-4.312 4.313-4.312 11.302 0 15.613 2.153 2.16 4.98 3.235 7.806 3.235zm-163.955-3.235c2.16 2.16 4.98 3.235 7.806 3.235s5.647-1.077 7.805-3.235c4.312-4.312 4.312-11.3 0-15.612l-15.612-15.61c-4.312-4.313-11.3-4.313-15.612 0s-4.31 11.3 0 15.61l15.613 15.613zm218.37 59.23h-22.08c-6.1 0-11.042 4.946-11.042 11.04 0 6.096 4.942 11.042 11.042 11.042h22.082c6.095 0 11.04-4.946 11.04-11.04 0-6.095-4.946-11.042-11.04-11.042z" id="Dibujo_28_"/></svg>