<svg id="Capa_1" xmlns="http://www.w3.org/2000/svg" viewBox="0 0 397.474 397.474"><g id="Dibujo_66_"><path d="M331.23 77.288c6.096 0 11.042-4.946 11.042-11.04s-4.946-11.042-11.04-11.042c-38.86 0-71.017 28.856-76.405 66.247H243.67c5.46-43.502 42.608-77.288 87.56-77.288 6.096 0 11.042-4.946 11.042-11.04s-4.946-11.042-11.04-11.042c-57.16 0-104.295 43.65-109.85 99.37h-44.726V66.247c0-8.176-2.274-15.81-6.16-22.39l8.445-8.447c4.313-4.312 4.313-11.3 0-15.612-4.31-4.312-11.3-4.312-15.61 0l-8.447 8.446c-3.506-2.076-7.31-3.666-11.35-4.704v-12.5c0-6.094-4.947-11.04-11.042-11.04-6.1 0-11.04 4.946-11.04 11.04v12.5c-4.036 1.038-7.845 2.628-11.35 4.704l-8.446-8.446c-4.312-4.312-11.3-4.312-15.612 0-4.312 4.312-4.312 11.3 0 15.612l8.446 8.446c-2.998 5.068-5.013 10.77-5.78 16.87H66.244c-5.123 0-9.567 3.523-10.743 8.503-1.175 4.984 1.232 10.124 5.81 12.415l27.017 13.51v37.34c0 57.16 43.65 104.294 99.37 109.848v55.77h-94.8l14.277-14.277c4.312-4.312 4.312-11.3 0-15.612-4.312-4.312-11.3-4.312-15.612 0l-33.118 33.118c-.513.513-.977 1.082-1.38 1.695-.177.26-.298.547-.447.817-.193.353-.41.7-.574 1.077-.144.36-.232.735-.342 1.105-.093.32-.214.624-.286.955-.282 1.43-.282 2.893 0 4.323.072.33.193.635.287.955.11.37.194.745.343 1.104.16.375.375.723.574 1.077.15.275.27.562.447.816.403.607.867 1.18 1.38 1.695l33.118 33.12c2.16 2.158 4.98 3.234 7.806 3.234 2.827 0 5.648-1.077 7.806-3.235 4.312-4.313 4.312-11.302 0-15.613L92.898 320.19h94.8v66.248c0 6.095 4.94 11.04 11.04 11.04 6.095 0 11.04-4.945 11.04-11.04V320.19h83.76l29.887 29.89c2.16 2.158 4.98 3.234 7.806 3.234s5.65-1.077 7.807-3.235c4.312-4.313 4.312-11.302 0-15.613L313.72 309.15l25.317-25.317c4.312-4.312 4.312-11.3 0-15.612-4.312-4.31-11.3-4.31-15.612 0l-29.888 29.89H209.78v-55.764c55.718-5.56 99.37-52.694 99.37-109.848 0-12.178 9.903-22.082 22.08-22.082 6.096 0 11.042-4.946 11.042-11.04 0-6.096-4.946-11.042-11.04-11.042-20.537 0-37.79 14.11-42.708 33.123H277.14c5.13-25.173 27.432-44.17 54.09-44.17zm-113.48 66.246c-3.826 6.564-10.87 11.04-19.007 11.04-8.143 0-15.182-4.476-19.007-11.04h38.014zm68.632 0c-5.454 43.513-42.68 77.288-87.644 77.288-48.702 0-88.33-39.626-88.33-88.33V66.248c0-12.178 9.905-22.082 22.083-22.082 12.18 0 22.083 9.904 22.083 22.082v66.247c0 .04.01.072.01.11.062 24.3 19.847 44.054 44.16 44.054 20.536 0 37.788-14.11 42.707-33.123h44.932z"/><circle cx="132.491" cy="66.247" r="11.041"/></g></svg>