<svg xmlns="http://www.w3.org/2000/svg" viewBox="0 0 25.9 25.9"><path d="M23.85 9.5c-.1-.2-.1-.5.2-.7l.4-.2c.3-.2.5-.5.5-.9 0-.2 0-.3-.1-.5l-1-1.7c-.3-.5-.9-.6-1.4-.4l-.4.3c-.2.1-.5.1-.7-.2l-.3-.4c-.3-.5-.9-.6-1.4-.4l-1.7 1c-.5.3-.6.9-.4 1.4l.2.4c.1.2.1.5-.2.7l-2 1.1c-.3.2-.8 0-.8-.4V6.5c0-.3.2-.5.5-.5h.5c.6 0 1-.4 1-1V3c0-.6-.4-1-1-1h-.5c-.3 0-.5-.2-.5-.5V1c0-.6-.4-1-1-1h-2c-.6 0-1 .4-1 1v.5c0 .3-.2.5-.5.5h-.3c-.6 0-1 .4-1 1v2c0 .6.4 1 1 1h.5c.3 0 .5.2.5.5v2.1c0 .4-.4.6-.8.4l-2-1.1c-.2-.1-.3-.4-.2-.7l.2-.4c.3-.5.1-1.1-.4-1.4l-1.7-1c-.5-.3-1.1-.1-1.4.4l-.3.4c-.1.2-.4.3-.7.2l-.4-.3c-.5-.3-1.1-.1-1.4.4l-1 1.7c-.1.2-.1.3-.1.5 0 .4.2.7.5.9l.4.2c.2.1.3.4.2.7l-.3.4c-.3.5-.1 1.1.4 1.4l1.7 1c.5.3 1.1.1 1.4-.4l.3-.4c.1-.2.4-.3.7-.2l2.1 1.2c.3.2.3.7 0 .9l-2.1 1.2c-.2.1-.5.1-.7-.2l-.3-.4c-.3-.5-.9-.6-1.4-.4l-1.7 1c-.5.3-.6.9-.4 1.4l.3.4c.1.2.1.5-.2.7l-.4.2c-.3.2-.5.5-.5.9 0 .2 0 .3.1.5l1 1.7c.3.5.9.6 1.4.4l.4-.3c.2-.1.5-.1.7.2l.3.4c.3.5.9.6 1.4.4l1.7-1c.5-.3.6-.9.4-1.4l-.2-.4c-.1-.2-.1-.5.2-.7l2-1.1c.3-.2.8 0 .8.4v2.1c0 .3-.2.5-.5.5h-.5c-.6 0-1 .4-1 1v2c0 .6.4 1 1 1h.5c.3 0 .5.2.5.5v.5c0 .6.4 1 1 1h2c.6 0 1-.4 1-1v-.5c0-.3.2-.5.5-.5h.5c.6 0 1-.4 1-1v-2c0-.6-.4-1-1-1h-.5c-.3 0-.5-.2-.5-.5v-2.1c0-.4.4-.6.8-.4l2 1.1c.2.1.3.4.2.7l-.2.4c-.3.5-.1 1.1.4 1.4l1.7 1c.5.3 1.1.1 1.4-.4l.3-.4c.1-.2.4-.3.7-.2l.4.3c.5.3 1.1.1 1.4-.4l1-1.7c.1-.2.1-.3.1-.5 0-.4-.2-.7-.5-.9l-.4-.2c-.2-.1-.3-.4-.2-.7l.3-.4c.3-.5.1-1.1-.4-1.4l-1.7-1c-.5-.3-1.1-.1-1.4.4l-.3.4c-.1.2-.4.3-.7.2l-2.1-1.2c-.3-.2-.3-.7 0-.9l2.1-1.2c.2-.1.5-.1.7.2l.3.4c.3.5.9.6 1.4.4l1.7-1c.5-.3.6-.9.4-1.4l-.5-.4z"/></svg>