<svg xmlns="http://www.w3.org/2000/svg" viewBox="0 0 24 24"><path d="M24 13v-2c0-.6-.4-1-1-1h-1.8c-.2 0-.4-.2-.5-.4-.2-.7-.5-1.4-.9-2.1-.1-.2-.1-.4.1-.6l1.3-1.3c.4-.4.4-1 0-1.4l-1.4-1.4c-.4-.4-1-.4-1.4 0l-1.3 1.3c-.2.2-.4.2-.6.1-.6-.4-1.3-.7-2.1-.9-.2-.1-.4-.2-.4-.5V1c0-.6-.4-1-1-1h-2c-.6 0-1 .4-1 1v1.8c0 .2-.2.4-.4.5-.7.2-1.4.5-2.1.9-.2.1-.4.1-.6-.1L5.6 2.8c-.4-.4-1-.4-1.4 0L2.8 4.2c-.4.4-.4 1 0 1.4l1.3 1.3c.2.2.2.4.1.6-.4.6-.7 1.3-.9 2.1-.1.2-.2.4-.5.4H1c-.6 0-1 .4-1 1v2c0 .6.4 1 1 1h1.8c.2 0 .4.2.5.4.2.7.5 1.4.9 2.1.1.2.1.4-.1.6l-1.3 1.3c-.4.4-.4 1 0 1.4l1.4 1.4c.4.4 1 .4 1.4 0l1.3-1.3c.2-.2.4-.2.6-.1.6.4 1.3.7 2.1.9.2.1.4.2.4.5V23c0 .6.4 1 1 1h2c.6 0 1-.4 1-1v-1.8c0-.2.2-.4.4-.5.7-.2 1.4-.5 2.1-.9.2-.1.4-.1.6.1l1.3 1.3c.4.4 1 .4 1.4 0l1.4-1.4c.4-.4.4-1 0-1.4l-1.3-1.3c-.2-.2-.2-.4-.1-.6.4-.6.7-1.3.9-2.1.1-.2.2-.4.5-.4H23c.6 0 1-.4 1-1zm-12 4c-2.8 0-5-2.2-5-5s2.2-5 5-5 5 2.2 5 5-2.2 5-5 5z"/></svg>